<svg width="63" height="99" viewBox="0 0 63 99" fill="none" xmlns="http://www.w3.org/2000/svg">
<path opacity="0.5" d="M46.193 48.5684C54.487 44.9934 59.206 38.2724 59.206 27.2614C59.206 8.24239 44.763 0.949393 28.032 0.949393C17.021 0.949393 7.869 3.9524 2.149 8.0994V32.4094H19.738V15.6784C21.311 15.3924 22.884 15.2494 24.457 15.2494C33.323 15.2494 37.47 19.1104 37.47 28.5484C37.47 37.5574 33.466 42.2764 25.172 42.2764H19.166V55.8614H26.745C35.897 55.8614 40.473 61.2954 40.473 69.0174C40.473 77.7404 34.61 81.8874 25.458 81.8874C17.45 81.8874 11.158 78.8844 5.581 74.8804L-0.425 85.6054C6.439 94.4714 17.736 98.9044 30.034 98.9044C47.623 98.9044 62.352 89.6094 62.352 70.8764C62.352 59.4364 56.918 51.8574 46.193 48.5684Z" fill="#FFBF46"/>
</svg>
