<svg width="69" height="51" viewBox="0 0 69 51" fill="none" xmlns="http://www.w3.org/2000/svg">
<path fill-rule="evenodd" clip-rule="evenodd" d="M31.332 1.75963L34.3934 2.6954L37.384 1.75763C39.5096 1.09127 41.4242 0.759767 44.0038 0.610872C47.4611 0.411232 47.8076 0.453963 51.3057 1.51025C58.3338 3.63251 63.3922 7.93511 66.3828 14.3346C67.6825 17.1165 68.0023 18.2369 68.5381 21.8848C69.1554 26.0896 69.1554 26.2439 68.5294 30.266C67.9809 33.7904 67.6728 34.7997 66.3244 37.4844C63.1489 43.8075 58.0086 48.0129 51.1388 49.9092C47.9656 50.7852 47.3012 50.859 44.128 50.6887C41.5671 50.5515 39.8291 50.2427 37.6778 49.5429L34.7326 48.5848L31.6686 49.5526C29.6157 50.2009 27.5369 50.5879 25.3709 50.7241C22.4982 50.905 21.735 50.8222 18.5271 49.9813C11.5577 48.1541 6.26859 43.8592 3.02328 37.3926C1.55336 34.4631 1.30965 33.6445 0.608577 29.2809C-0.162272 24.4828 -0.164942 24.3843 0.398589 20.6857C0.875654 17.5532 1.21551 16.4552 2.48546 13.9397C5.66734 7.63631 10.7024 3.44121 17.4341 1.48388C20.6597 0.546107 21.2055 0.48234 24.598 0.646592C27.2765 0.776124 29.099 1.07725 31.332 1.75963ZM17.5823 4.72886C7.08985 7.89204 -0.0818161 18.5537 1.41181 28.7687C2.60531 36.9296 9.4902 44.4258 17.8497 46.6652C21.5604 47.6594 26.4759 47.7889 29.3039 46.9667C30.2961 46.6782 31.108 46.3924 31.108 46.3317C31.108 46.2709 30.6767 45.9438 30.1496 45.6042C29.6224 45.265 28.1448 43.7103 26.8659 42.1496C22.9375 37.3549 20.7491 31.0299 20.7264 24.4054C20.7141 20.8372 20.9311 19.8023 22.618 15.3819C23.5147 13.0319 24.2986 11.7056 26.1107 9.47347C27.3957 7.89037 28.9878 6.24418 29.6491 5.81552C31.6692 4.50585 29.6551 3.74301 24.2979 3.78941C21.29 3.81545 20.025 3.99239 17.5823 4.72886ZM39.4832 4.36496L37.6761 4.93217L38.9978 5.80684C39.7249 6.28791 41.3588 7.96916 42.6287 9.54324C46.8602 14.7876 48.8609 21.9356 48.1148 29.1456C47.6578 33.5648 45.5999 38.3892 42.5806 42.1209C41.3307 43.6659 39.8057 45.2263 39.1921 45.5885C38.5785 45.9504 38.1986 46.356 38.3478 46.4896C39.7773 47.7669 46.5774 47.8674 50.8887 46.6745C59.6221 44.2585 66.3227 36.6101 67.4878 27.7278C68.0921 23.1197 67.7606 20.7214 66.0029 16.984C63.1969 11.0182 57.8003 6.46085 51.3865 4.64072C47.5793 3.56006 42.4291 3.44088 39.4832 4.36496ZM35.1142 8.09735C35.1142 9.01543 35.227 9.76124 35.3646 9.75456C35.5021 9.74789 36.0656 9.37231 36.6165 8.91995L37.618 8.09735L36.6165 7.27476C36.0656 6.8224 35.5021 6.44682 35.3646 6.44015C35.227 6.43347 35.1142 7.17928 35.1142 8.09735ZM32.3583 7.46939C31.329 8.23724 31.3714 8.43187 32.7873 9.44008L33.7788 10.1458V8.4539C33.7788 7.52347 33.666 6.76665 33.5284 6.77266C33.3909 6.77833 32.8641 7.09181 32.3583 7.46939ZM27.9218 11.3086L26.6839 12.8193L27.6637 13.8802C28.2026 14.4638 29.2839 15.8129 30.0664 16.8782C31.321 18.5854 32.4624 19.4481 33.4666 19.4481C33.6382 19.4481 33.7788 18.0546 33.7788 16.3514V13.2546L31.4692 11.5263L29.1597 9.79797L27.9218 11.3086ZM37.6971 11.6862L35.1329 13.6058L35.1235 16.5493C35.1142 19.4491 35.1255 19.4898 35.8653 19.2642C36.9343 18.9383 37.624 18.266 39.6652 15.5598C40.655 14.2475 41.6983 13.084 41.9841 12.9745C42.4134 12.8096 42.3166 12.5155 41.4229 11.2709C40.8286 10.4436 40.3242 9.76658 40.3018 9.76658C40.2794 9.76658 39.1073 10.6306 37.6971 11.6862ZM24.0756 16.993C22.7218 20.1492 22.619 19.9389 27.1526 23.2873C29.3904 24.9399 31.7964 26.7179 32.4998 27.2391L33.7788 28.1858V25.4907V22.7956L32.6884 22.3399C31.6218 21.8942 30.9772 21.2382 28.2703 17.8433C27.5359 16.9219 26.7096 16.097 26.4342 16.0098C26.1588 15.9227 25.6717 15.7438 25.3522 15.6122C24.8875 15.4206 24.6318 15.6973 24.0756 16.993ZM43.2767 15.9117C42.2621 16.3534 41.9019 16.7313 39.1938 20.1929C38.1425 21.5363 37.414 22.1242 36.4395 22.4163L35.1142 22.8133V25.4753V28.1378L40.5645 24.0432C43.5621 21.7914 46.0747 19.8738 46.1481 19.7819C46.3407 19.5409 44.8044 15.4393 44.5273 15.455C44.3994 15.4623 43.8369 15.6676 43.2767 15.9117ZM21.9076 23.2186C21.8084 23.4763 21.7724 24.7108 21.8275 25.9614L21.9273 28.2356L23.3748 28.7621C24.811 29.2845 25.843 30.2547 29.2378 34.2742C30.8323 36.1621 32.5202 37.4721 33.3615 37.4744C33.6663 37.4754 33.7755 36.6431 33.7658 34.3877L33.7531 31.2996L28.3772 27.2935C21.9523 22.5055 22.1366 22.6216 21.9076 23.2186ZM41.1234 27.2524L35.2811 31.6535L35.1843 34.5913C35.0878 37.5135 35.0915 37.5282 35.852 37.3095C36.2723 37.189 38.4192 35.2357 40.6226 32.9692C43.6232 29.8824 44.9012 28.7928 45.7141 28.6285C47.0031 28.3674 47.2107 27.7942 47.0668 24.8955L46.9657 22.8517L41.1234 27.2524ZM23.0957 32.173C23.0957 32.3432 23.5324 33.4459 24.0662 34.623C25.1716 37.0608 28.9157 41.7176 30.7268 42.9074C31.3955 43.3464 32.3559 43.9741 32.8607 44.3016L33.7788 44.8971V42.86C33.7788 40.878 33.7494 40.8109 32.6938 40.3675C32.0972 40.1168 29.9953 38.1798 28.023 36.0626C24.8214 32.626 23.0957 31.2639 23.0957 32.173ZM42.8968 34.3596C38.6242 39.2602 37.802 40.0357 36.4516 40.4403L35.1142 40.8409V42.6637C35.1142 43.6662 35.1976 44.4865 35.2995 44.4865C35.4013 44.4865 36.3517 43.8976 37.4117 43.1778C39.9005 41.4879 43.28 37.5405 44.5022 34.8958C46.1434 31.3454 45.6644 31.1854 42.8968 34.3596Z" fill="#1CA078"/>
</svg>
