<svg width="437" height="563" viewBox="0 0 437 563" fill="none" xmlns="http://www.w3.org/2000/svg">
<path d="M187.286 375.428C187.286 409.907 159.336 437.857 124.857 437.857C90.379 437.857 62.4288 409.907 62.4288 375.428L187.286 375.428Z" fill="#1CA078"/>
<path d="M437 125.715C437 160.193 409.05 188.143 374.571 188.143C340.093 188.143 312.143 160.193 312.143 125.715L437 125.715Z" fill="#1CA078"/>
<path d="M437 188C437 222.478 409.05 250.429 374.571 250.429C340.093 250.429 312.143 222.478 312.143 188L437 188Z" fill="#1CA078"/>
<path d="M249.714 437.857C284.193 437.857 312.143 465.807 312.143 500.285C312.143 534.764 284.193 562.714 249.714 562.714L249.714 437.857Z" fill="#1CA078"/>
<path d="M311 437.857C345.478 437.857 373.429 465.807 373.429 500.285C373.429 534.764 345.478 562.714 311 562.714L311 437.857Z" fill="#1CA078"/>
<path d="M437 125.714C402.522 125.714 374.572 97.7639 374.572 63.2856C374.572 28.8072 402.522 0.857023 437 0.857029L437 125.714Z" fill="#1CA078"/>
<path d="M249.714 437.857C249.714 472.335 221.764 500.286 187.286 500.286C152.807 500.286 124.857 472.335 124.857 437.857L249.714 437.857Z" fill="#1CA078"/>
<path d="M374.571 125.714C340.093 125.714 312.143 97.7641 312.143 63.2858C312.143 28.8075 340.093 0.857267 374.571 0.857273L374.571 125.714Z" fill="#1CA078"/>
<path d="M249.714 500.286C249.714 534.764 221.764 562.714 187.286 562.714C152.807 562.714 124.857 534.764 124.857 500.286L249.714 500.286Z" fill="#1CA078"/>
<path d="M62.4287 375.428C62.4287 340.95 90.3789 313 124.857 313C159.336 313 187.286 340.95 187.286 375.428L62.4287 375.428Z" fill="#1CA078"/>
<path d="M187.286 313C187.286 278.522 215.236 250.572 249.714 250.572C284.193 250.572 312.143 278.522 312.143 313L187.286 313Z" fill="#1CA078"/>
<path d="M312.143 437.857C312.143 403.379 340.093 375.428 374.571 375.428C409.05 375.428 437 403.379 437 437.857L312.143 437.857Z" fill="#1CA078"/>
<path d="M312.143 437.857C277.665 437.857 249.714 409.907 249.714 375.428C249.714 340.95 277.665 313 312.143 313L312.143 437.857Z" fill="#1CA078"/>
<path d="M312.143 313C312.143 278.522 340.093 250.572 374.571 250.572C409.05 250.572 437 278.522 437 313L312.143 313Z" fill="#1CA078"/>
<path d="M187.286 63.2859C221.764 63.2859 249.714 91.2361 249.714 125.714C249.714 160.193 221.764 188.143 187.286 188.143L187.286 63.2859Z" fill="#1CA078"/>
<path d="M124.857 251C90.3787 251 62.4285 223.05 62.4285 188.571C62.4285 154.093 90.3787 126.143 124.857 126.143L124.857 251Z" fill="#1CA078"/>
<path d="M62.4285 125.714C27.9502 125.714 5.22027e-06 97.7639 1.16598e-05 63.2856C1.80993e-05 28.8072 27.9502 0.857023 62.4286 0.857029L62.4285 125.714Z" fill="#1CA078"/>
<path d="M187.286 63.2858C187.286 97.7641 159.336 125.714 124.857 125.714C90.379 125.714 62.4288 97.7641 62.4288 63.2858L187.286 63.2858Z" fill="#1CA078"/>
<path d="M187.286 63.2855C187.286 28.8071 215.236 0.85694 249.714 0.856948C284.193 0.856956 312.143 28.8072 312.143 63.2855L187.286 63.2855Z" fill="#1CA078"/>
<path d="M187.286 0.857342C187.286 35.3357 159.335 63.2859 124.857 63.2859C90.3788 63.2859 62.4286 35.3357 62.4286 0.857317L187.286 0.857342Z" fill="#1CA078"/>
</svg>
