<svg width="833" height="598" viewBox="0 0 833 598" fill="none" xmlns="http://www.w3.org/2000/svg">
<path d="M593 237.999C593 171.725 646.726 117.999 713 117.999C779.274 117.999 833 171.725 833 237.999L593 237.999Z" fill="#FFF9FC"/>
<path d="M593 120.196C593 53.9223 646.726 0.196538 713 0.196544C779.274 0.196549 833 53.9224 833 120.197L593 120.196Z" fill="#FFF9FC"/>
<path d="M353 358C419.274 358 473 411.726 473 478C473 544.274 419.274 598 353 598L353 358Z" fill="#FFF9FC"/>
<path d="M235 -2.00068C235 64.2735 181.274 117.999 115 117.999C48.7259 117.999 -4.99988 64.2734 -4.99987 -2.00072L235 -2.00068Z" fill="#FFF9FC"/>
<path d="M473 358C539.274 358 593 411.726 593 478C593 544.274 539.274 598 473 598L473 358Z" fill="#FFF9FC"/>
<path d="M353 357.999C286.726 357.999 233 304.273 233 237.999C233 171.725 286.726 117.999 353 117.999L353 357.999Z" fill="#FFF9FC"/>
<path d="M593 117.999C593 184.273 539.274 237.999 473 237.999C406.726 237.999 353 184.273 353 117.999L593 117.999Z" fill="#FFF9FC"/>
<path d="M-3.99954 357.999C-3.99953 291.725 49.7263 237.999 116 237.999C182.275 237.999 236 291.725 236 357.999L-3.99954 357.999Z" fill="#FFF9FC"/>
</svg>
