<?xml version="1.0" encoding="utf-8"?>
<!-- Generator: Adobe Illustrator 25.2.3, SVG Export Plug-In . SVG Version: 6.00 Build 0)  -->
<svg version="1.1" id="Layer_1" xmlns="http://www.w3.org/2000/svg" xmlns:xlink="http://www.w3.org/1999/xlink" x="0px" y="0px"
	 viewBox="0 0 450 563" style="enable-background:new 0 0 450 563;" xml:space="preserve">
<style type="text/css">
	.st0{fill:#1CA078;}
	.st1{fill-rule:evenodd;clip-rule:evenodd;fill:#1CA078;}
	.st2{fill-rule:evenodd;clip-rule:evenodd;fill:#21353E;}
	.st3{fill:#21353E;}
</style>
<g>
	<path class="st0" d="M368.1,365.3l-8.1-22.2h1.8l10,13.5c0.5,0.7,1.5,1,2.4,0.6l17.8-8.5h3.5l-18.4,15.5c-0.6,0.5-0.9,1.4-0.6,2.2
		l6.1,15.4h-19.4l4.9-15.3C368.2,366.1,368.2,365.7,368.1,365.3z"/>
	<path class="st1" d="M380.7,332.6c-5.4-3.6-11.8-5.6-18.8-5.6c-6.9,0-13.4,2.1-18.8,5.6H380.7z"/>
	<path class="st1" d="M380.7,343.5c-5.5-3.5-12.3-5.5-19.3-5.5s-13.4,2-18.9,5.5H380.7z"/>
	<path class="st1" d="M408,332.6c-3.9-3.5-8.6-5.5-13.7-5.5c-5,0-9.7,2-13.7,5.5H408z"/>
	<path class="st1" d="M408,338.1c-3.9-3.5-8.6-5.5-13.7-5.5c-5,0-9.7,2-13.7,5.5h0.4H408z"/>
	<path class="st1" d="M408,343.5c-3.9-3.5-8.6-5.5-13.7-5.5c-5,0-9.7,2-13.7,5.5H408z"/>
	<path class="st1" d="M408,349c-3.9-3.5-8.6-5.5-13.7-5.5c-5,0-9.7,2-13.7,5.5H408z"/>
	<path class="st1" d="M342,338.1h19.3h19.3h0.4c-5.7-3.5-12.4-5.5-19.5-5.5C354.4,332.6,347.7,334.6,342,338.1z"/>
</g>
<g>
	<path class="st0" d="M187.3,375.4c0,34.5-27.9,62.4-62.4,62.4c-34.5,0-62.4-27.9-62.4-62.4H187.3z"/>
	<path class="st0" d="M437,125.7c0,34.5-28,62.4-62.4,62.4c-34.5,0-62.4-28-62.4-62.4H437z"/>
	<path class="st0" d="M437,188c0,34.5-28,62.4-62.4,62.4c-34.5,0-62.4-28-62.4-62.4H437z"/>
	<path class="st0" d="M249.7,437.9c34.5,0,62.4,28,62.4,62.4c0,34.5-28,62.4-62.4,62.4V437.9z"/>
	<path class="st0" d="M311,437.9c34.5,0,62.4,28,62.4,62.4c0,34.5-28,62.4-62.4,62.4V437.9z"/>
	<path class="st0" d="M437,125.7c-34.5,0-62.4-28-62.4-62.4c0-34.5,28-62.4,62.4-62.4V125.7z"/>
	<path class="st0" d="M249.7,437.9c0,34.5-27.9,62.4-62.4,62.4c-34.5,0-62.4-28-62.4-62.4H249.7z"/>
	<path class="st0" d="M374.6,125.7c-34.5,0-62.4-27.9-62.4-62.4s27.9-62.4,62.4-62.4V125.7z"/>
	<path class="st0" d="M249.7,500.3c0,34.5-27.9,62.4-62.4,62.4c-34.5,0-62.4-28-62.4-62.4H249.7z"/>
	<path class="st0" d="M62.4,375.4c0-34.5,28-62.4,62.4-62.4c34.5,0,62.4,28,62.4,62.4H62.4z"/>
	<path class="st0" d="M187.3,313c0-34.5,27.9-62.4,62.4-62.4c34.5,0,62.4,27.9,62.4,62.4H187.3z"/>
	<path class="st0" d="M312.1,437.9c0-34.5,27.9-62.4,62.4-62.4c34.5,0,62.4,28,62.4,62.4H312.1z"/>
	<path class="st0" d="M312.1,437.9c-34.5,0-62.4-27.9-62.4-62.4c0-34.5,28-62.4,62.4-62.4V437.9z"/>
	<path class="st0" d="M312.1,313c0-34.5,27.9-62.4,62.4-62.4c34.5,0,62.4,27.9,62.4,62.4H312.1z"/>
	<path class="st0" d="M187.3,63.3c34.5,0,62.4,28,62.4,62.4c0,34.5-27.9,62.4-62.4,62.4V63.3z"/>
	<path class="st0" d="M124.9,251c-34.5,0-62.4-27.9-62.4-62.4c0-34.5,28-62.4,62.4-62.4V251z"/>
	<path class="st0" d="M62.4,125.7C28,125.7,0,97.8,0,63.3C0,28.8,28,0.9,62.4,0.9L62.4,125.7z"/>
	<path class="st0" d="M187.3,63.3c0,34.5-27.9,62.4-62.4,62.4c-34.5,0-62.4-27.9-62.4-62.4H187.3z"/>
	<path class="st0" d="M187.3,63.3c0-34.5,27.9-62.4,62.4-62.4c34.5,0,62.4,28,62.4,62.4H187.3z"/>
	<path class="st0" d="M187.3,0.9c0,34.5-28,62.4-62.4,62.4c-34.5,0-62.4-28-62.4-62.4L187.3,0.9z"/>
</g>
<g>
	<path class="st2" d="M87,390.7c9.7-9.7,23.2-15.7,38-15.7C114.5,385.5,100.8,390.7,87,390.7z"/>
	<path class="st2" d="M140.7,413c-9.7-9.7-15.7-23.2-15.7-38C135.5,385.5,140.7,399.2,140.7,413z"/>
	<path class="st2" d="M140.7,337c0,13.8-5.2,27.5-15.7,38C125,360.2,131,346.7,140.7,337z"/>
	<path class="st2" d="M109.3,413c0-13.8,5.2-27.5,15.7-38C125,389.8,119,403.3,109.3,413z"/>
	<path class="st2" d="M163,359.3c-9.7,9.7-23.2,15.7-38,15.7C135.5,364.5,149.2,359.3,163,359.3z"/>
	<path class="st2" d="M163,390.7c-13.8,0-27.5-5.2-38-15.7C139.8,375,153.3,381,163,390.7z"/>
	<path class="st3" d="M109.3,337c9.7,9.7,15.7,23.2,15.7,38C114.5,364.5,109.3,350.8,109.3,337z"/>
	<path class="st3" d="M125,375c-14.8,0-28.3-6-38-15.7C100.8,359.3,114.5,364.5,125,375z"/>
</g>
<g>
	<path class="st0" d="M162.7,174c-7.8,0-14.1,6.3-14.1,14.1c0,7.8,6.3,14.1,14.1,14.1s24.3-14.1,24.3-14.1S170.5,174,162.7,174z"/>
	<path class="st1" d="M132.8,200.8c-4.7-2.3-7.8-7.1-7.8-12.7c0-5.5,3.2-10.3,7.8-12.7V200.8z"/>
	<path class="st1" d="M148.5,202.2c-0.5,0.1-1,0.1-1.6,0.1c-7.8,0-14.1-6.3-14.1-14.1c0-7.8,6.3-14.1,14.1-14.1c0.5,0,1.1,0,1.6,0.1
		V202.2z"/>
</g>
<g>
	<path class="st0" d="M230.1,416.6c-2.2,0-4.4,0.9-6,2.4l-4.9,4.8c-0.9,0.9-2.2,1.4-3.4,1.4c-1.3,0-2.5-0.5-3.4-1.4l-4.9-4.8
		c-1.6-1.6-3.8-2.4-6-2.4H194l8.6,8.4c1.6,1.6,3.8,2.4,6,2.4h2.1h4.7h0.6h5.9h1c2.2,0,4.4-0.9,6-2.4l8.6-8.4H230.1z"/>
	<path class="st0" d="M230.1,427.5c-2.2,0-4.4,0.9-6,2.4l-4.9,4.8c-0.9,0.9-2.2,1.4-3.4,1.4c-1.3,0-2.5-0.5-3.4-1.4l-4.9-4.8
		c-1.6-1.6-3.8-2.4-6-2.4H194l8.6,8.4c1.6,1.6,3.8,2.4,6,2.4h2.1h4.7h0.6h5.9h1c2.2,0,4.4-0.9,6-2.4l8.6-8.4H230.1z"/>
	<path class="st0" d="M230.1,438.4c-2.2,0-4.4,0.9-6,2.4l-4.9,4.8c-0.9,0.9-2.2,1.4-3.4,1.4c-1.3,0-2.5-0.5-3.4-1.4l-4.9-4.8
		c-1.6-1.6-3.8-2.4-6-2.4H194l8.6,8.4c1.6,1.6,3.8,2.4,6,2.4h2.1h4.7h0.6h5.9h1c2.2,0,4.4-0.9,6-2.4l8.6-8.4H230.1z"/>
	<path class="st0" d="M218.6,410.6l-2.6-6.5c-0.1-0.3-0.5-0.3-0.6,0l-2.6,6.5c-0.1,0.2-0.3,0.3-0.5,0.1l-4.7-4.5
		c-0.2-0.2-0.5,0-0.5,0.2v6.3c0,0.9,0.4,1.8,1,2.5l6.4,6.5c0.7,0.7,1.8,0.7,2.4,0l6.4-6.5c0.6-0.7,1-1.6,1-2.5v-6.3
		c0-0.3-0.3-0.4-0.5-0.2l-4.7,4.5C219,410.9,218.7,410.8,218.6,410.6z"/>
</g>
</svg>
