<svg width="375" height="437" viewBox="0 0 375 437" fill="none" xmlns="http://www.w3.org/2000/svg">
<g opacity="0.5">
<path d="M249.714 62.2857C249.714 27.8074 277.664 -0.142817 312.143 -0.14281C346.621 -0.142803 374.571 27.8074 374.571 62.2857L249.714 62.2857Z" fill="#82C3A9"/>
<path d="M-5.45768e-06 312C-2.44349e-06 277.521 27.9502 249.571 62.4285 249.571C96.9069 249.571 124.857 277.521 124.857 312L-5.45768e-06 312Z" fill="#82C3A9"/>
<path d="M-5.45768e-06 249.714C-2.44349e-06 215.236 27.9502 187.286 62.4285 187.286C96.9069 187.286 124.857 215.236 124.857 249.714L-5.45768e-06 249.714Z" fill="#82C3A9"/>
<path d="M4.19617e-05 312C34.4784 312 62.4286 339.95 62.4286 374.428C62.4286 408.907 34.4784 436.857 1.86421e-05 436.857L4.19617e-05 312Z" fill="#82C3A9"/>
<path d="M62.4286 312C96.907 312 124.857 339.95 124.857 374.428C124.857 408.907 96.9069 436.857 62.4286 436.857L62.4286 312Z" fill="#82C3A9"/>
<path d="M374.571 62.2857C374.571 96.764 346.621 124.714 312.143 124.714C277.664 124.714 249.714 96.764 249.714 62.2857L374.571 62.2857Z" fill="#82C3A9"/>
<path d="M249.714 124.714C249.714 159.192 221.764 187.143 187.286 187.143C152.807 187.143 124.857 159.192 124.857 124.714L249.714 124.714Z" fill="#82C3A9"/>
<path d="M124.857 -0.143024C124.857 34.3353 96.9068 62.2855 62.4285 62.2855C27.9502 62.2855 -3.50369e-05 34.3353 -3.12004e-05 -0.143038L124.857 -0.143024Z" fill="#82C3A9"/>
<path d="M124.857 -0.14283C159.335 -0.142826 187.286 27.8074 187.286 62.2857C187.286 96.7641 159.335 124.714 124.857 124.714L124.857 -0.14283Z" fill="#82C3A9"/>
<path d="M124.857 124.714C124.857 159.192 96.907 187.143 62.4286 187.143C27.9503 187.143 8.70334e-05 159.192 9.08699e-05 124.714L124.857 124.714Z" fill="#82C3A9"/>
<path d="M249.714 374.428C215.236 374.428 187.286 346.478 187.286 312C187.286 277.521 215.236 249.571 249.714 249.571L249.714 374.428Z" fill="#82C3A9"/>
<path d="M312.143 186.714C346.621 186.714 374.571 214.664 374.571 249.143C374.571 283.621 346.621 311.571 312.143 311.571L312.143 186.714Z" fill="#82C3A9"/>
<path d="M374.571 312C409.05 312 437 339.95 437 374.428C437 408.907 409.05 436.857 374.571 436.857L374.571 312Z" fill="#82C3A9"/>
<path d="M374.571 312C374.571 346.478 346.621 374.428 312.143 374.428C277.665 374.428 249.714 346.478 249.714 312L374.571 312Z" fill="#82C3A9"/>
<path d="M249.714 374.429C249.714 408.907 221.764 436.857 187.286 436.857C152.807 436.857 124.857 408.907 124.857 374.429L249.714 374.429Z" fill="#82C3A9"/>
<path d="M249.714 436.857C249.714 402.379 277.664 374.428 312.143 374.428C346.621 374.428 374.571 402.379 374.571 436.857L249.714 436.857Z" fill="#82C3A9"/>
</g>
</svg>
