<svg width="373" height="374" viewBox="0 0 373 374" fill="none" xmlns="http://www.w3.org/2000/svg">
<path d="M249.714 187.286C249.714 152.807 277.664 124.857 312.143 124.857C346.621 124.857 374.571 152.807 374.571 187.286L249.714 187.286Z" fill="#1CA078"/>
<path d="M-5.45768e-06 374.714C-2.44349e-06 340.236 27.9502 312.286 62.4285 312.286C96.9069 312.286 124.857 340.236 124.857 374.714L-5.45768e-06 374.714Z" fill="#1CA078"/>
<path d="M187.286 124.857C152.807 124.857 124.857 96.9068 124.857 62.4285C124.857 27.9502 152.807 -3.53702e-05 187.286 -3.19448e-05L187.286 124.857Z" fill="#1CA078"/>
<path d="M126 124.857C91.5215 124.857 63.5713 96.9068 63.5713 62.4285C63.5713 27.9502 91.5215 -3.53702e-05 126 -3.19448e-05L126 124.857Z" fill="#1CA078"/>
<path d="M187.286 124.857C187.286 90.3787 215.236 62.4285 249.714 62.4285C284.193 62.4285 312.143 90.3787 312.143 124.857L187.286 124.857Z" fill="#1CA078"/>
<path d="M187.286 62.4285C187.286 27.9502 215.236 5.55358e-06 249.714 1.24043e-05C284.193 1.92549e-05 312.143 27.9502 312.143 62.4286L187.286 62.4285Z" fill="#1CA078"/>
<path d="M374.571 187.286C374.571 221.764 346.621 249.714 312.143 249.714C277.664 249.714 249.714 221.764 249.714 187.286L374.571 187.286Z" fill="#1CA078"/>
<path d="M249.714 249.714C249.714 284.192 221.764 312.143 187.286 312.143C152.807 312.143 124.857 284.192 124.857 249.714L249.714 249.714Z" fill="#1CA078"/>
<path d="M124.857 124.857C124.857 159.335 96.9068 187.286 62.4285 187.286C27.9502 187.286 -3.50369e-05 159.335 -3.12004e-05 124.857L124.857 124.857Z" fill="#1CA078"/>
<path d="M124.857 124.857C159.335 124.857 187.286 152.807 187.286 187.286C187.286 221.764 159.335 249.714 124.857 249.714L124.857 124.857Z" fill="#1CA078"/>
<path d="M124.857 249.714C124.857 284.192 96.907 312.143 62.4286 312.143C27.9503 312.143 8.70334e-05 284.192 9.08699e-05 249.714L124.857 249.714Z" fill="#1CA078"/>
<path d="M312.143 311.714C346.621 311.714 374.571 339.664 374.571 374.143C374.571 408.621 346.621 436.571 312.143 436.571L312.143 311.714Z" fill="#1CA078"/>
</svg>
