<svg width="18" height="24" viewBox="0 0 18 24" fill="none" xmlns="http://www.w3.org/2000/svg">
<path d="M5.27834 17.2415C7.63041 19.8673 7.76221 23 8.70507 23C9.64793 23 9.77972 19.8673 12.1318 17.2415C14.4839 14.6157 16.4101 12.3792 16.4101 8.78618C16.4101 7.48913 16.0977 6.26449 15.5432 5.1871M5.27834 17.2415L15.5432 5.1871M5.27834 17.2415C3.78768 15.5773 2.46804 14.0695 1.70139 12.2737M15.5432 5.1871C14.6156 3.38468 13.0105 1.99433 11.0571 1.36637M1.70139 12.2737C1.25836 11.236 1 10.1021 1 8.78618C1 6.85783 1.69054 5.08954 2.84048 3.72719M1.70139 12.2737L6.37927 6.82005M11.0571 1.36637C10.3171 1.12847 9.52713 1 8.70507 1C6.34443 1 4.24822 2.05942 2.84048 3.72719M11.0571 1.36637L6.37927 6.82005M2.84048 3.72719L6.37927 6.82005M11.6654 8.66452C11.6654 10.2995 10.34 11.6249 8.70507 11.6249C7.0701 11.6249 5.7447 10.2995 5.7447 8.66452C5.7447 7.02955 7.0701 5.70415 8.70507 5.70415C10.34 5.70415 11.6654 7.02955 11.6654 8.66452Z" stroke="#F3EFEB" stroke-width="1.4"/>
</svg>
