<svg width="19" height="20" viewBox="0 0 19 20" fill="none" xmlns="http://www.w3.org/2000/svg">
<g clip-path="url(#clip0)">
<path d="M11.9147 4.08329C12.6879 4.23416 13.3986 4.61233 13.9556 5.16941C14.5127 5.72649 14.8909 6.43713 15.0418 7.21038M11.9147 0.916626C13.5212 1.0951 15.0193 1.81451 16.1629 2.95676C17.3066 4.099 18.0279 5.59617 18.2084 7.20246M17.4168 13.52V15.895C17.4177 16.1154 17.3725 16.3337 17.2842 16.5357C17.1958 16.7377 17.0663 16.919 16.9038 17.0681C16.7414 17.2172 16.5495 17.3306 16.3407 17.4013C16.1318 17.4719 15.9105 17.4981 15.6909 17.4783C13.2548 17.2136 10.9148 16.3812 8.85884 15.0479C6.94604 13.8324 5.32431 12.2107 4.10884 10.2979C2.77091 8.23258 1.93828 5.88116 1.67842 3.43413C1.65864 3.2152 1.68466 2.99456 1.75482 2.78625C1.82498 2.57793 1.93775 2.3865 2.08595 2.22416C2.23414 2.06181 2.41452 1.9321 2.61559 1.84329C2.81666 1.75447 3.03403 1.7085 3.25384 1.70829H5.62884C6.01304 1.70451 6.38551 1.84056 6.67682 2.09109C6.96813 2.34162 7.1584 2.68952 7.21217 3.06996C7.31242 3.83001 7.49832 4.57628 7.76634 5.29454C7.87285 5.5779 7.89591 5.88585 7.83277 6.18191C7.76963 6.47796 7.62294 6.74971 7.41009 6.96496L6.40467 7.97038C7.53165 9.95235 9.1727 11.5934 11.1547 12.7204L12.1601 11.715C12.3753 11.5021 12.6471 11.3554 12.9431 11.2923C13.2392 11.2291 13.5471 11.2522 13.8305 11.3587C14.5488 11.6267 15.295 11.8126 16.0551 11.9129C16.4397 11.9671 16.7909 12.1608 17.0419 12.4571C17.293 12.7535 17.4264 13.1317 17.4168 13.52Z" stroke="#FFF9FC" stroke-width="1.58333" stroke-linecap="round" stroke-linejoin="round"/>
</g>
<defs>
<clipPath id="clip0">
<rect width="19" height="19" fill="white" transform="translate(0 0.125)"/>
</clipPath>
</defs>
</svg>
