<svg width="16" height="23" viewBox="0 0 16 23" fill="none" xmlns="http://www.w3.org/2000/svg">
<path opacity="0.5" d="M13.0899 2.82001C12.1702 2.06359 11.0933 1.52204 9.9376 1.23485C8.78194 0.947666 7.57674 0.922096 6.40994 1.16001C4.85632 1.47383 3.43093 2.24208 2.31462 3.36729C1.19832 4.49249 0.441414 5.92394 0.139942 7.48001C-0.0802115 8.64673 -0.0402063 9.84766 0.257104 10.9971C0.554414 12.1466 1.1017 13.2163 1.85994 14.13C2.56363 14.9241 2.96698 15.9395 2.99994 17V20C2.99994 20.7957 3.31601 21.5587 3.87862 22.1213C4.44123 22.6839 5.20429 23 5.99994 23H9.99994C10.7956 23 11.5587 22.6839 12.1213 22.1213C12.6839 21.5587 12.9999 20.7957 12.9999 20V17.19C13.0335 16.0192 13.4637 14.8944 14.2199 14C15.5451 12.3608 16.1697 10.2648 15.9581 8.16763C15.7465 6.07044 14.7158 4.14149 13.0899 2.80001V2.82001ZM10.9999 20C10.9999 20.2652 10.8946 20.5196 10.707 20.7071C10.5195 20.8947 10.2652 21 9.99994 21H5.99994C5.73473 21 5.48037 20.8947 5.29284 20.7071C5.1053 20.5196 4.99994 20.2652 4.99994 20V19H10.9999V20ZM12.6699 12.76C11.6644 13.9526 11.0778 15.442 10.9999 17H8.99994V14C8.99994 13.7348 8.89458 13.4804 8.70705 13.2929C8.51951 13.1054 8.26516 13 7.99994 13C7.73473 13 7.48037 13.1054 7.29284 13.2929C7.1053 13.4804 6.99994 13.7348 6.99994 14V17H4.99994C4.97356 15.4681 4.40689 13.9948 3.39994 12.84C2.73558 12.044 2.28883 11.0894 2.10325 10.0694C1.91767 9.04928 1.99959 7.99852 2.34103 7.01954C2.68247 6.04055 3.27176 5.16675 4.05146 4.48333C4.83116 3.79992 5.77465 3.33021 6.78994 3.12001C7.66249 2.94035 8.5641 2.95725 9.42931 3.16948C10.2945 3.3817 11.1016 3.78393 11.792 4.34696C12.4824 4.90999 13.0387 5.61969 13.4206 6.42453C13.8025 7.22937 14.0004 8.10915 13.9999 9.00001C14.0073 10.3699 13.537 11.6995 12.6699 12.76Z" fill="#13171A"/>
</svg>
