<?xml version="1.0" encoding="utf-8"?>
<!-- Generator: Adobe Illustrator 25.2.3, SVG Export Plug-In . SVG Version: 6.00 Build 0)  -->
<svg version="1.1" id="Layer_1" xmlns="http://www.w3.org/2000/svg" xmlns:xlink="http://www.w3.org/1999/xlink" x="0px" y="0px"
	 viewBox="0 0 24 48" style="enable-background:new 0 0 24 48;" xml:space="preserve">
<style type="text/css">
	.st0{opacity:0.6;fill:#13171A;enable-background:new    ;}
	.st1{fill:#13171A;enable-background:new    ;}
</style>
<path class="st0" d="M21.3,9.6l-1.9-0.6l0.9-1.8c0.1-0.2,0.1-0.4,0.1-0.6c0-0.2-0.1-0.4-0.3-0.5L18,3.9c-0.1-0.1-0.3-0.2-0.5-0.3
	c-0.2,0-0.4,0-0.6,0.1l-1.8,0.9l-0.6-1.9c-0.1-0.2-0.2-0.4-0.4-0.5S13.7,2,13.5,2h-3c-0.2,0-0.4,0.1-0.6,0.2
	C9.7,2.3,9.6,2.5,9.6,2.7L8.9,4.6L7.1,3.7C7,3.6,6.7,3.6,6.5,3.6C6.3,3.6,6.1,3.7,6,3.9L3.9,6C3.7,6.1,3.6,6.3,3.6,6.5
	c0,0.2,0,0.4,0.1,0.6l0.9,1.8L2.7,9.6C2.5,9.6,2.3,9.8,2.2,9.9C2.1,10.1,2,10.3,2,10.5v3c0,0.2,0.1,0.4,0.2,0.6
	c0.1,0.2,0.3,0.3,0.5,0.4l1.9,0.6l-0.9,1.8c-0.1,0.2-0.1,0.4-0.1,0.6c0,0.2,0.1,0.4,0.3,0.5L6,20.1c0.1,0.1,0.3,0.2,0.5,0.3
	c0.2,0,0.4,0,0.6-0.1l1.8-0.9l0.6,1.9c0.1,0.2,0.2,0.4,0.4,0.5c0.2,0.1,0.4,0.2,0.6,0.2h3c0.2,0,0.4-0.1,0.6-0.2
	c0.2-0.1,0.3-0.3,0.4-0.5l0.6-1.9l1.8,0.9c0.2,0.1,0.4,0.1,0.6,0.1c0.2,0,0.4-0.1,0.5-0.3l2.1-2.1c0.1-0.1,0.2-0.3,0.3-0.5
	c0-0.2,0-0.4-0.1-0.6l-0.9-1.8l1.9-0.6c0.2-0.1,0.4-0.2,0.5-0.4c0.1-0.2,0.2-0.4,0.2-0.6v-3c0-0.2-0.1-0.4-0.2-0.6
	C21.7,9.7,21.5,9.6,21.3,9.6z M20,12.8l-1.2,0.4c-0.3,0.1-0.5,0.2-0.7,0.4c-0.2,0.2-0.4,0.4-0.5,0.7c-0.1,0.3-0.2,0.6-0.1,0.8
	c0,0.3,0.1,0.6,0.2,0.8l0.6,1.1l-1.1,1.1L16,17.6c-0.3-0.1-0.5-0.2-0.8-0.2c-0.3,0-0.6,0-0.8,0.2c-0.3,0.1-0.5,0.3-0.7,0.5
	c-0.2,0.2-0.3,0.5-0.4,0.7L12.8,20h-1.6l-0.4-1.2c-0.1-0.3-0.2-0.5-0.4-0.7c-0.2-0.2-0.4-0.4-0.7-0.5c-0.3-0.1-0.6-0.2-0.8-0.1
	c-0.3,0-0.6,0.1-0.8,0.2l-1.1,0.6l-1.1-1.1L6.4,16c0.1-0.3,0.2-0.5,0.2-0.8c0-0.3,0-0.6-0.1-0.8s-0.3-0.5-0.5-0.7s-0.5-0.3-0.7-0.4
	L4,12.8v-1.6l1.2-0.4c0.3-0.1,0.5-0.2,0.7-0.4s0.4-0.4,0.5-0.7c0.1-0.3,0.2-0.6,0.1-0.8c0-0.3-0.1-0.6-0.2-0.8L5.8,6.9l1.1-1.1
	L8,6.4c0.3,0.1,0.5,0.2,0.8,0.2c0.3,0,0.6,0,0.8-0.1c0.3-0.1,0.5-0.3,0.7-0.5s0.3-0.5,0.4-0.7L11.2,4h1.6l0.4,1.2
	c0.1,0.3,0.2,0.5,0.4,0.7s0.4,0.4,0.7,0.5s0.6,0.2,0.8,0.1c0.3,0,0.6-0.1,0.8-0.2l1.1-0.6l1.1,1.1L17.6,8c-0.1,0.3-0.2,0.5-0.2,0.8
	c0,0.3,0,0.6,0.2,0.8c0.1,0.3,0.3,0.5,0.5,0.7c0.2,0.2,0.5,0.3,0.7,0.4l1.2,0.4V12.8z M12,8c-0.8,0-1.6,0.2-2.2,0.7
	c-0.7,0.4-1.2,1.1-1.5,1.8C8,11.2,7.9,12,8.1,12.8c0.2,0.8,0.5,1.5,1.1,2c0.6,0.6,1.3,0.9,2,1.1c0.8,0.2,1.6,0.1,2.3-0.2
	c0.7-0.3,1.4-0.8,1.8-1.5c0.4-0.7,0.7-1.4,0.7-2.2c0-1.1-0.4-2.1-1.2-2.8C14.1,8.4,13.1,8,12,8z M12,14c-0.4,0-0.8-0.1-1.1-0.3
	c-0.3-0.2-0.6-0.5-0.7-0.9C10,12.4,10,12,10,11.6c0.1-0.4,0.3-0.7,0.5-1s0.6-0.5,1-0.5c0.4-0.1,0.8,0,1.2,0.1
	c0.4,0.2,0.7,0.4,0.9,0.7c0.2,0.3,0.3,0.7,0.3,1.1c0,0.5-0.2,1-0.6,1.4S12.5,14,12,14z"/>
<path class="st1" d="M21.3,33.6l-1.9-0.6l0.9-1.8c0.1-0.2,0.1-0.4,0.1-0.6c0-0.2-0.1-0.4-0.3-0.5L18,27.9c-0.1-0.1-0.3-0.2-0.5-0.3
	c-0.2,0-0.4,0-0.6,0.1l-1.8,0.9l-0.6-1.9c-0.1-0.2-0.2-0.4-0.4-0.5S13.7,26,13.5,26h-3c-0.2,0-0.4,0.1-0.6,0.2
	c-0.2,0.1-0.3,0.3-0.4,0.5l-0.6,1.9l-1.8-0.9c-0.2-0.1-0.4-0.1-0.6-0.1c-0.2,0-0.4,0.1-0.5,0.3L3.9,30c-0.1,0.1-0.2,0.3-0.3,0.5
	c0,0.2,0,0.4,0.1,0.6l0.9,1.8l-1.9,0.6c-0.2,0.1-0.4,0.2-0.5,0.4C2.1,34.1,2,34.3,2,34.5v3c0,0.2,0.1,0.4,0.2,0.6
	c0.1,0.2,0.3,0.3,0.5,0.4l1.9,0.6l-0.9,1.8c-0.1,0.2-0.1,0.4-0.1,0.6c0,0.2,0.1,0.4,0.3,0.5L6,44.1c0.1,0.1,0.3,0.2,0.5,0.3
	c0.2,0,0.4,0,0.6-0.1l1.8-0.9l0.6,1.9c0.1,0.2,0.2,0.4,0.4,0.5c0.2,0.1,0.4,0.2,0.6,0.2h3c0.2,0,0.4-0.1,0.6-0.2
	c0.2-0.1,0.3-0.3,0.4-0.5l0.6-1.9l1.8,0.9c0.2,0.1,0.4,0.1,0.6,0.1c0.2,0,0.4-0.1,0.5-0.3l2.1-2.1c0.1-0.1,0.2-0.3,0.3-0.5
	c0-0.2,0-0.4-0.1-0.6l-0.9-1.8l1.9-0.6c0.2-0.1,0.4-0.2,0.5-0.4c0.1-0.2,0.2-0.4,0.2-0.6v-3c0-0.2-0.1-0.4-0.2-0.6
	C21.7,33.7,21.5,33.6,21.3,33.6z M20,36.8l-1.2,0.4c-0.3,0.1-0.5,0.2-0.7,0.4c-0.2,0.2-0.4,0.4-0.5,0.7c-0.1,0.3-0.2,0.6-0.1,0.8
	c0,0.3,0.1,0.6,0.2,0.8l0.6,1.1l-1.1,1.1L16,41.6c-0.3-0.1-0.5-0.2-0.8-0.2c-0.3,0-0.6,0-0.8,0.2c-0.3,0.1-0.5,0.3-0.7,0.5
	c-0.2,0.2-0.3,0.5-0.4,0.7L12.8,44h-1.6l-0.4-1.2c-0.1-0.3-0.2-0.5-0.4-0.7c-0.2-0.2-0.4-0.4-0.7-0.5c-0.3-0.1-0.6-0.2-0.8-0.1
	c-0.3,0-0.6,0.1-0.8,0.2l-1.1,0.6l-1.1-1.1L6.4,40c0.1-0.3,0.2-0.5,0.2-0.8c0-0.3,0-0.6-0.1-0.8s-0.3-0.5-0.5-0.7
	c-0.2-0.2-0.5-0.3-0.7-0.4L4,36.8v-1.6l1.2-0.4c0.3-0.1,0.5-0.2,0.7-0.4c0.2-0.2,0.4-0.4,0.5-0.7c0.1-0.3,0.2-0.6,0.1-0.8
	c0-0.3-0.1-0.6-0.2-0.8l-0.6-1.1l1.1-1.1L8,30.4c0.3,0.1,0.5,0.2,0.8,0.2c0.3,0,0.6,0,0.8-0.1c0.3-0.1,0.5-0.3,0.7-0.5
	s0.3-0.5,0.4-0.7l0.4-1.2h1.6l0.4,1.2c0.1,0.3,0.2,0.5,0.4,0.7s0.4,0.4,0.7,0.5c0.3,0.1,0.6,0.2,0.8,0.1c0.3,0,0.6-0.1,0.8-0.2
	l1.1-0.6l1.1,1.1L17.6,32c-0.1,0.3-0.2,0.5-0.2,0.8s0,0.6,0.2,0.8c0.1,0.3,0.3,0.5,0.5,0.7s0.5,0.3,0.7,0.4l1.2,0.4V36.8z M12,32
	c-0.8,0-1.6,0.2-2.2,0.7c-0.7,0.4-1.2,1.1-1.5,1.8C8,35.2,7.9,36,8.1,36.8c0.2,0.8,0.5,1.5,1.1,2c0.6,0.6,1.3,0.9,2,1.1
	c0.8,0.2,1.6,0.1,2.3-0.2c0.7-0.3,1.4-0.8,1.8-1.5c0.4-0.7,0.7-1.4,0.7-2.2c0-1.1-0.4-2.1-1.2-2.8C14.1,32.4,13.1,32,12,32z M12,38
	c-0.4,0-0.8-0.1-1.1-0.3c-0.3-0.2-0.6-0.5-0.7-0.9C10,36.4,10,36,10,35.6c0.1-0.4,0.3-0.7,0.5-1c0.3-0.3,0.6-0.5,1-0.5
	c0.4-0.1,0.8,0,1.2,0.1c0.4,0.2,0.7,0.4,0.9,0.7c0.2,0.3,0.3,0.7,0.3,1.1c0,0.5-0.2,1-0.6,1.4C13,37.8,12.5,38,12,38z"/>
</svg>
