<?xml version="1.0" encoding="utf-8"?>
<!-- Generator: Adobe Illustrator 25.2.3, SVG Export Plug-In . SVG Version: 6.00 Build 0)  -->
<svg version="1.1" id="Layer_1" xmlns="http://www.w3.org/2000/svg" xmlns:xlink="http://www.w3.org/1999/xlink" x="0px" y="0px"
	 viewBox="0 0 24 48" style="enable-background:new 0 0 24 48;" xml:space="preserve">
<style type="text/css">
	.st0{opacity:0.5;fill:#13171A;enable-background:new    ;}
	.st1{fill:#13171A;enable-background:new    ;}
</style>
<path class="st0" d="M16.6,3.7c-0.8-0.7-1.8-1.2-2.9-1.4c-1.1-0.3-2.1-0.3-3.2-0.1c-1.4,0.3-2.7,1-3.7,2c-1,1-1.7,2.3-2,3.7
	C4.7,9,4.7,10,5,11.1c0.3,1,0.8,2,1.5,2.8c0.6,0.7,1,1.6,1,2.6v2.7c0,0.7,0.3,1.4,0.8,1.9c0.5,0.5,1.2,0.8,1.9,0.8h3.6
	c0.7,0,1.4-0.3,1.9-0.8c0.5-0.5,0.8-1.2,0.8-1.9v-2.6c0-1.1,0.4-2.1,1.1-2.9c1.2-1.5,1.8-3.4,1.6-5.3C19,6.6,18.1,4.9,16.6,3.7
	L16.6,3.7z M14.7,19.3c0,0.2-0.1,0.5-0.3,0.6c-0.2,0.2-0.4,0.3-0.6,0.3h-3.6c-0.2,0-0.5-0.1-0.6-0.3c-0.2-0.2-0.3-0.4-0.3-0.6v-0.9
	h5.5V19.3z M16.2,12.7c-0.9,1.1-1.4,2.4-1.5,3.9h-1.8v-2.7c0-0.2-0.1-0.5-0.3-0.6c-0.2-0.2-0.4-0.3-0.6-0.3c-0.2,0-0.5,0.1-0.6,0.3
	c-0.2,0.2-0.3,0.4-0.3,0.6v2.7H9.3c0-1.4-0.5-2.7-1.5-3.8c-0.6-0.7-1-1.6-1.2-2.5C6.5,9.3,6.5,8.4,6.9,7.5c0.3-0.9,0.8-1.7,1.6-2.3
	c0.7-0.6,1.6-1,2.5-1.2c0.8-0.2,1.6-0.1,2.4,0c0.8,0.2,1.5,0.6,2.1,1.1c0.6,0.5,1.1,1.2,1.5,1.9c0.3,0.7,0.5,1.5,0.5,2.3
	C17.5,10.5,17,11.7,16.2,12.7z"/>
<path class="st1" d="M16.6,27.7c-0.8-0.7-1.8-1.2-2.9-1.4c-1.1-0.3-2.1-0.3-3.2-0.1c-1.4,0.3-2.7,1-3.7,2c-1,1-1.7,2.3-2,3.7
	C4.7,33,4.7,34,5,35.1c0.3,1,0.8,2,1.5,2.8c0.6,0.7,1,1.6,1,2.6v2.7c0,0.7,0.3,1.4,0.8,1.9S9.5,46,10.2,46h3.6
	c0.7,0,1.4-0.3,1.9-0.8c0.5-0.5,0.8-1.2,0.8-1.9v-2.6c0-1.1,0.4-2.1,1.1-2.9c1.2-1.5,1.8-3.4,1.6-5.3C19,30.6,18.1,28.9,16.6,27.7
	L16.6,27.7z M14.7,43.3c0,0.2-0.1,0.5-0.3,0.6c-0.2,0.2-0.4,0.3-0.6,0.3h-3.6c-0.2,0-0.5-0.1-0.6-0.3c-0.2-0.2-0.3-0.4-0.3-0.6v-0.9
	h5.5V43.3z M16.2,36.7c-0.9,1.1-1.4,2.4-1.5,3.9h-1.8v-2.7c0-0.2-0.1-0.5-0.3-0.6c-0.2-0.2-0.4-0.3-0.6-0.3c-0.2,0-0.5,0.1-0.6,0.3
	c-0.2,0.2-0.3,0.4-0.3,0.6v2.7H9.3c0-1.4-0.5-2.7-1.5-3.8c-0.6-0.7-1-1.6-1.2-2.5c-0.2-0.9-0.1-1.9,0.2-2.8c0.3-0.9,0.8-1.7,1.6-2.3
	c0.7-0.6,1.6-1,2.5-1.2c0.8-0.2,1.6-0.1,2.4,0c0.8,0.2,1.5,0.6,2.1,1.1c0.6,0.5,1.1,1.2,1.5,1.9c0.3,0.7,0.5,1.5,0.5,2.3
	C17.5,34.5,17,35.7,16.2,36.7z"/>
</svg>
