<?xml version="1.0" encoding="utf-8"?>
<!-- Generator: Adobe Illustrator 25.2.3, SVG Export Plug-In . SVG Version: 6.00 Build 0)  -->
<svg version="1.1" id="Layer_1" xmlns="http://www.w3.org/2000/svg" xmlns:xlink="http://www.w3.org/1999/xlink" x="0px" y="0px"
	 viewBox="0 0 24 48" style="enable-background:new 0 0 24 48;" xml:space="preserve">
<style type="text/css">
	.st0{opacity:0.6;fill:none;stroke:#13171A;stroke-width:2;stroke-linecap:round;stroke-linejoin:round;}
	.st1{fill:none;stroke:#13171A;stroke-width:2;stroke-linecap:round;stroke-linejoin:round;}
</style>
<path class="st0" d="M9,22V12h6v10 M3,9l9-7l9,7v11c0,0.5-0.2,1-0.6,1.4C20,21.8,19.5,22,19,22H5c-0.5,0-1-0.2-1.4-0.6
	C3.2,21,3,20.5,3,20V9z"/>
<path class="st1" d="M9,46V36h6v10 M3,33l9-7l9,7v11c0,0.5-0.2,1-0.6,1.4C20,45.8,19.5,46,19,46H5c-0.5,0-1-0.2-1.4-0.6
	C3.2,45,3,44.5,3,44V33z"/>
</svg>
